# xmcd
# 
# Track frame offsets:
#     150
#     24806
#     42473
#     67276
#     84419
#     107923
#     135195
#     160484
#     198601
#     220990
#     249383
# 
# Disc length: 3720
# 
# Revision: 1
# Processed by: cddbd v1.5.2PL0 Copyright (c) Steve Scherf et al.
# Submitted via: fre:ac v1.0.31
# 
DISCID=9a0e860b
DTITLE=Paul Personne - Funambule ou tentative de survie en milieu hostile
DYEAR=2019
DGENRE=Blues
TTITLE0=Les Dégâts
TTITLE1=Karma
TTITLE2=Les Autres
TTITLE3=Bonheur
TTITLE4=Comedia
TTITLE5=Chez Moi
TTITLE6=Danse
TTITLE7=Les Mêmes
TTITLE8=Avant
TTITLE9=Décalé
TTITLE10=Blessures
EXTD=
EXTT0=
EXTT1=
EXTT2=
EXTT3=
EXTT4=
EXTT5=
EXTT6=
EXTT7=
EXTT8=
EXTT9=
EXTT10=
PLAYORDER=
